<svg xmlns="http://www.w3.org/2000/svg" xmlns:xlink="http://www.w3.org/1999/xlink" width="25mm" height="25mm" viewBox="0 0 231 231"><defs><path id="a" d="M1.094-9.25q-.002-3.31.672-5.344.684-2.027 2.03-3.125 1.359-1.108 3.407-1.11 1.5 0 2.64.61 1.138.61 1.876 1.766.75 1.142 1.172 2.781.421 1.642.422 4.422-.001 3.3-.688 5.328-.673 2.034-2.031 3.14Q9.246.315 7.204.314q-2.72 0-4.266-1.938Q1.093-3.967 1.094-9.25m2.36 0q0 4.628 1.077 6.156Q5.61-1.577 7.203-1.578 8.78-1.576 9.86-3.11q1.092-1.53 1.094-6.141-.002-4.623-1.094-6.14c-.718-1.02-1.617-1.532-2.687-1.532q-1.583.002-2.531 1.344-1.189 1.723-1.188 6.328m0 0"/><path id="b" d="M4.625-10.172q-1.423-.514-2.125-1.484-.688-.983-.687-2.328-.001-2.044 1.468-3.438 1.466-1.406 3.922-1.406 2.449 0 3.938 1.437 1.5 1.424 1.5 3.47 0 1.298-.688 2.265c-.45.648-1.137 1.14-2.062 1.484q1.717.563 2.609 1.828c.602.836.906 1.828.906 2.985q-.002 2.407-1.703 4.047Q10.013.313 7.234.313c-1.843 0-3.336-.547-4.468-1.641q-1.704-1.64-1.703-4.094c0-1.219.304-2.238.921-3.062q.937-1.23 2.641-1.688m-.453-3.89q0 1.329.844 2.171.856.844 2.234.844c.883 0 1.61-.273 2.172-.828.57-.562.86-1.25.86-2.062q-.002-1.265-.876-2.126c-.586-.582-1.312-.875-2.187-.875s-1.606.29-2.188.86q-.86.843-.86 2.015m-.75 8.656q0 .985.469 1.906.466.925 1.39 1.422c.614.336 1.274.5 1.985.5q1.64.002 2.718-1.063 1.08-1.06 1.079-2.687-.002-1.67-1.11-2.75Q8.84-9.17 7.188-9.172q-1.627 0-2.704 1.078-1.063 1.08-1.062 2.688m0 0"/><path id="c" d="M1.094-4.906 3.5-5.11c.176 1.18.594 2.062 1.25 2.656q.983.877 2.36.875c1.1 0 2.038-.414 2.812-1.25q1.156-1.248 1.156-3.328 0-1.97-1.11-3.094-1.11-1.139-2.89-1.14-1.125 0-2.016.5a3.9 3.9 0 0 0-1.406 1.312L1.5-8.86l1.813-9.625h9.328v2.187H5.156L4.141-11.25c1.125-.781 2.304-1.172 3.547-1.172 1.632 0 3.015.57 4.14 1.703q1.688 1.687 1.688 4.36 0 2.549-1.485 4.406Q10.232.314 7.11.313q-2.564 0-4.187-1.422Q1.31-2.545 1.094-4.906m0 0"/><path id="d" d="M.828-5.625v-2.312h7.078v2.312Zm0 0"/><path id="e" d="M13.188-2.219V0H.797a3.9 3.9 0 0 1 .265-1.594q.468-1.265 1.516-2.484c.695-.82 1.703-1.774 3.016-2.86Q8.64-9.436 9.719-10.89c.719-.976 1.078-1.906 1.078-2.78a3.05 3.05 0 0 0-.985-2.298q-.986-.951-2.546-.953-1.676.002-2.672 1-.987 1.002-1 2.766l-2.36-.25c.157-1.758.758-3.102 1.813-4.031q1.593-1.39 4.265-1.391 2.701 0 4.266 1.5 1.576 1.5 1.578 3.703 0 1.127-.469 2.219-.455 1.095-1.515 2.297c-.711.793-1.89 1.89-3.547 3.297-1.387 1.156-2.277 1.945-2.672 2.359q-.58.611-.969 1.234Zm0 0"/><path id="f" d="M8.469 0v-4.484H.329v-2.11L8.89-18.75h1.875v12.156h2.53v2.11h-2.53V0Zm0-6.594v-8.453L2.594-6.594Zm0 0"/><path id="g" d="M9.75 0H7.453v-14.672c-.555.531-1.281 1.063-2.187 1.594-.899.531-1.703.93-2.422 1.187v-2.218q1.933-.92 3.375-2.203 1.45-1.297 2.047-2.516H9.75Zm0 0"/><path id="h" d="m13.031-14.156-2.297.187q-.297-1.359-.859-1.969a3.06 3.06 0 0 0-2.312-1q-1.097.002-1.922.625-1.096.8-1.72 2.313-.627 1.517-.64 4.328.826-1.266 2.031-1.875 1.203-.61 2.516-.61c1.531 0 2.832.571 3.906 1.704q1.624 1.687 1.625 4.36-.002 1.769-.765 3.28c-.5 1.012-1.196 1.79-2.078 2.329Q9.186.312 7.5.313q-2.894 0-4.703-2.11C1.586-3.203.984-5.523.984-8.766c0-3.625.664-6.257 2-7.906q1.765-2.156 4.72-2.156c1.476 0 2.687.418 3.624 1.25.945.824 1.516 1.965 1.703 3.422M3.625-6.078q-.002 1.19.5 2.281.515 1.094 1.422 1.656a3.55 3.55 0 0 0 1.906.563q1.452 0 2.5-1.172 1.062-1.171 1.063-3.203c0-1.29-.352-2.305-1.047-3.047q-1.033-1.125-2.61-1.125c-1.03 0-1.914.375-2.64 1.125Q3.625-7.888 3.625-6.078m0 0"/><path id="i" d="M1.234-16.297V-18.5h12.141v1.781q-1.8 1.91-3.562 5.078a30.7 30.7 0 0 0-2.704 6.485Q6.42-2.795 6.234 0H3.86c.032-1.477.32-3.258.875-5.344A28 28 0 0 1 7.11-11.39q1.56-2.904 3.313-4.906Zm0 0"/><path id="j" d="m1.094-4.953 2.312-.297q.388 1.957 1.344 2.813.95.86 2.328.859 1.607 0 2.734-1.125 1.126-1.124 1.126-2.781c0-1.063-.352-1.93-1.047-2.61q-1.032-1.03-2.625-1.031c-.438 0-.98.086-1.625.25l.25-2.016q.233.017.375.016c.976 0 1.859-.254 2.64-.766q1.186-.762 1.188-2.359c0-.844-.29-1.54-.86-2.094q-.86-.843-2.218-.843c-.899 0-1.641.289-2.235.859q-.89.843-1.156 2.531l-2.297-.422q.422-2.31 1.922-3.578c1-.851 2.238-1.281 3.719-1.281a6.1 6.1 0 0 1 2.828.672c.863.437 1.52 1.039 1.969 1.797q.686 1.127.687 2.406c0 .812-.219 1.555-.656 2.219q-.645 1.003-1.922 1.578 1.652.392 2.578 1.594.92 1.204.922 3.03c0 1.637-.602 3.024-1.797 4.157C10.391-.238 8.883.328 7.063.328c-1.649 0-3.016-.488-4.11-1.469-1.086-.976-1.703-2.25-1.86-3.812m0 0"/><path id="k" d="m1.438-4.328 2.203-.219q.281 1.564 1.078 2.266.796.703 2.031.703 1.061.001 1.86-.484.795-.481 1.312-1.297.515-.81.86-2.188.341-1.389.343-2.812c0-.102-.008-.258-.016-.47A5.2 5.2 0 0 1 9.22-7.03a5.14 5.14 0 0 1-2.578.672q-2.333 0-3.938-1.688-1.61-1.688-1.61-4.453-.002-2.843 1.673-4.578 1.687-1.748 4.218-1.75c1.22 0 2.332.328 3.344.984q1.512.985 2.297 2.813.78 1.829.781 5.281 0 3.597-.781 5.719-.767 2.127-2.312 3.234Q8.765.315 6.703.313 4.5.313 3.11-.907c-.93-.812-1.484-1.952-1.671-3.421m9.421-8.281q0-1.98-1.062-3.141-1.05-1.172-2.531-1.172-1.535 0-2.672 1.266-1.141 1.254-1.14 3.234 0 1.798 1.077 2.922Q5.61-8.389 7.203-8.39q1.595.002 2.625-1.11 1.032-1.124 1.031-3.11m0 0"/></defs><path fill="#231815" d="M99.078 53.793s38.453-27.86 53.793 0c16.102 29.25-20.594 66.613-20.594 66.613h57.578s30.122-74.101-20.175-92.246c-33.254-12-70.602 25.633-70.602 25.633"/><path fill="#231815" d="M139.563 93.11c0 15.074-12.223 27.296-27.297 27.296-15.079 0-27.297-12.222-27.297-27.297 0-15.078 12.219-27.3 27.297-27.3 15.074 0 27.296 12.222 27.296 27.3M68.934 149.047l5.609-8.969.84 8.969Zm10.246-16.258h-5.164c-8.391 10.238-16.223 25.543-16.223 25.543l6.46.078 3.274-6.355s6.594.007 7.996.007v6.27s1.844.25 5.961.078c.696-9.082-2.304-25.62-2.304-25.62M120.934 149.047l5.605-8.969.84 8.969Zm10.246-16.258h-5.164c-8.395 10.238-16.223 25.543-16.223 25.543l6.457.078 3.273-6.355s6.594.007 7.997.007v6.27s1.843.25 5.96.078c.7-9.082-2.3-25.62-2.3-25.62M91.996 132.79l-6.52 25.679h5.606l3.926-15.098 7.5 15.098h4.137l6.796-25.68h-5.816l-3.855 15.207-7.5-15.207ZM139.027 132.79l-.562 2.589h6.45l-6.099 23.09h6.098l6.027-22.95h6.59l.7-2.73ZM161.668 132.79l-6.8 25.679h15.28l.7-2.762h-9.18l2.383-9.043h7.566l.703-2.73h-7.5l2.172-8.555h8.903l.628-2.59ZM181.082 132.79l-6.871 25.679h15.21l.774-2.903-9.113.141 5.957-22.918Zm0 0"/><use xlink:href="#a" x="18.768" y="199.184"/><use xlink:href="#b" x="33.327" y="199.184"/><use xlink:href="#c" x="47.886" y="199.184"/><use xlink:href="#b" x="62.445" y="199.184"/><use xlink:href="#a" x="77.004" y="199.184"/><use xlink:href="#d" x="91.563" y="199.184"/><use xlink:href="#e" x="100.282" y="199.184"/><use xlink:href="#f" x="114.841" y="199.184"/><use xlink:href="#d" x="129.4" y="199.184"/><use xlink:href="#g" x="138.12" y="199.184"/><use xlink:href="#h" x="152.679" y="199.184"/><use xlink:href="#i" x="167.238" y="199.184"/><use xlink:href="#j" x="181.797" y="199.184"/><use xlink:href="#k" x="196.355" y="199.184"/></svg>